<?xml version="1.0" encoding="UTF-8" standalone="no"?>
<!-- Created with Inkscape (http://www.inkscape.org/) -->

<svg
   width="400"
   height="400"
   viewBox="0 0 105.83333 105.83333"
   version="1.1"
   id="svg1"
   xml:space="preserve"
   xmlns="http://www.w3.org/2000/svg"
   xmlns:svg="http://www.w3.org/2000/svg"><defs
     id="defs1" /><circle
     style="opacity:1;fill:#ffffff;fill-opacity:1;stroke:none;stroke-width:0.330729;stroke-linecap:round;stroke-linejoin:bevel;stroke-dasharray:none;stroke-opacity:1"
     id="path4"
     cx="52.916668"
     cy="52.916668"
     r="52.916668" /><circle
     style="opacity:1;fill:#006f45;fill-opacity:1;stroke:none;stroke-width:0.402172;stroke-linecap:round;stroke-linejoin:bevel;stroke-dasharray:none;stroke-opacity:1"
     id="path5"
     cx="52.916676"
     cy="52.916668"
     r="51.593754" /><circle
     style="display:inline;opacity:1;fill:#ffffff;fill-opacity:1;stroke:none;stroke-width:0.38952;stroke-linecap:round;stroke-linejoin:bevel;stroke-dasharray:none;stroke-opacity:1"
     id="path6"
     cx="52.916676"
     cy="52.916668"
     r="35.71875" /><path
     style="display:inline;opacity:1;fill:#eb1c23;fill-opacity:1;fill-rule:nonzero;stroke:none;stroke-width:0.88833"
     d="m 38.834427,52.916668 c 0,-14.005121 11.353985,-25.359112 25.359111,-25.359112 3.11608,0 6.103815,0.565617 8.859026,1.596228 -5.184251,-4.105066 -11.739181,-6.554905 -18.866651,-6.554905 -16.801965,0 -30.425372,13.619927 -30.425372,30.425339 0,16.80543 13.623407,30.428826 30.425372,30.428826 7.36692,0 14.119615,-2.619875 19.383666,-6.97132 -2.900926,1.15206 -6.065636,1.79055 -9.376041,1.79055 -14.005126,0 -25.359111,-11.353986 -25.359111,-25.355606"
     id="path19743" /><path
     style="fill:#ffffff;fill-opacity:1;stroke-width:0.5"
     d="m 52.238168,99.19127 -0.0213,-1.620575 h 0.43754 c 0.546375,0 0.93747,0.42799 1.850115,2.024625 l 0.65756,1.15037 h 0.904645 0.90464 l -0.595975,-1.0914 c -0.32779,-0.600275 -0.81049,-1.38115 -1.07267,-1.735285 -0.262175,-0.35413 -0.458855,-0.65179 -0.437055,-0.66146 1.30399,-0.578485 1.80998,-2.099205 1.127735,-3.389345 -0.50458,-0.954176 -0.87297,-1.070596 -3.25674,-1.029211 l -2.036346,0.03535 0.0276,3.896246 c 0.0316,4.462285 -0.03705,4.132185 0.848845,4.080835 l 0.682706,-0.0396 z m -0.04485,-4.001825 v -0.92604 h 1.03783 c 1.20293,0 1.47571,0.17783 1.47571,0.96203 0,0.68852 -0.35114,0.890055 -1.55079,0.890055 h -0.96275 z m -4.789225,4.66878 c 2.509465,-1.190815 2.615114,-6.771411 0.142105,-7.505816 -0.84579,-0.251175 -3.021378,-0.651065 -3.102223,-0.570215 -0.13309,0.13309 -1.56456,7.631196 -1.47414,7.721611 0.497955,0.497955 3.607943,0.746535 4.434258,0.35442 z M 45.140975,98.53352 c -0.537185,-0.08075 -0.537825,-0.14343 -0.02725,-2.672685 0.544575,-2.697781 0.410595,-2.462366 1.282378,-2.253226 1.45603,0.349296 1.78367,1.445766 1.10002,3.681276 -0.37814,1.236495 -0.827965,1.47422 -2.355133,1.244635 z m 16.855258,1.2659 c 1.31299,-0.44534 2.538865,-2.8578 1.629495,-3.20676 -0.74887,-0.287365 -1.22675,-0.100245 -1.319245,0.516565 -0.323605,2.15796 -2.414815,1.69886 -3.03061,-0.66533 -0.64674,-2.48301 0.698665,-4.150866 2.126835,-2.636565 l 0.44323,0.469965 0.59765,-0.350245 c 0.68004,-0.398536 0.65808,-0.354386 0.411775,-0.827766 -0.640605,-1.231225 -2.207145,-1.68015 -3.599925,-1.031635 -3.665735,1.706861 -1.071615,9.024861 2.740795,7.731771 z M 40.113094,98.091445 c 1.198435,-0.4528 1.985851,-2.19553 1.430745,-3.16658 -0.24618,-0.430645 -0.243715,-0.52917 0.01325,-0.52917 1.163161,0 1.729671,-2.482206 0.769586,-3.371986 -0.408135,-0.37825 -3.639946,-1.83057 -3.765841,-1.692305 -0.121615,0.13356 -3.168535,7.018126 -3.168535,7.159356 0,0.05882 0.401835,0.27624 0.89297,0.483165 3.29486,1.3882 3.19139,1.35799 3.827845,1.11752 z M 38.335769,96.23083 c -1.10649,-0.467665 -1.066595,-0.37179 -0.590815,-1.41992 l 0.368305,-0.811355 0.95523,0.457785 c 1.11292,0.53335 1.3555,0.875925 1.084145,1.531025 -0.300135,0.7246 -0.585915,0.762735 -1.816865,0.242465 z m 1.15755,-3.220206 c -0.80296,-0.34885 -0.824445,-0.422655 -0.3779,-1.29796 0.29352,-0.575345 0.37835,-0.57428 1.50238,0.0189 1.602866,0.845835 0.573465,2.016771 -1.12448,1.279085 z m 28.988314,4.488501 c 3.641075,-1.282275 2.36373,-5.512736 -1.499425,-4.965966 -1.26768,0.17942 -1.637645,0.12559 -1.758725,-0.2559 -0.271425,-0.855185 1.13534,-1.508685 1.87609,-0.871515 l 0.36893,0.317335 0.63538,-0.32197 0.63538,-0.32197 -0.236255,-0.408915 c -1.32658,-2.296095 -5.379395,-0.60123 -4.664865,1.95082 0.383365,1.369246 1.40188,1.884141 3.223065,1.629366 1.32987,-0.186035 1.766,-0.105805 1.87933,0.34574 0.30717,1.22386 -1.14356,1.96994 -2.13605,1.09852 l -0.47928,-0.420815 -0.583655,0.318835 c -0.681355,0.372205 -0.674155,0.348725 -0.273435,0.89187 0.828005,1.1223 1.78895,1.44582 3.013515,1.014565 z M 26.617694,89.170789 c 2.56371,-0.76134 3.3837,-4.114375 1.47335,-6.024725 -1.39937,-1.39937 -3.729935,-1.39123 -5.112785,0.01785 -2.636066,2.686075 0.02605,7.079915 3.639435,6.006865 z m 54.76875,0 c 1.33855,-0.39751 2.394065,-1.695855 2.520115,-3.09989 0.30785,-3.429095 -3.65475,-5.28296 -6.14914,-2.876825 -2.681985,2.587095 0.0259,7.04673 3.629025,5.976715 z m 10.80267,-8.98069 0.38554,-0.62735 -0.86546,-1.413595 c -0.476005,-0.777475 -0.85536,-1.42052 -0.843015,-1.428985 0.01235,-0.0084 0.4987,0.0336 1.080785,0.09346 2.463521,0.253375 2.139436,0.31311 2.674671,-0.493005 0.588645,-0.88657 0.820025,-0.783755 -2.205096,-0.979835 l -2.57313,-0.166785 -1.320865,-0.8402 c -1.48147,-0.94236 -1.532345,-0.957785 -1.7895,-0.54254 -0.10138,0.16371 -0.26659,0.424295 -0.36713,0.579075 -0.174745,0.269035 -0.11957,0.320725 1.253495,1.174215 l 1.436295,0.89279 1.24719,2.229455 c 1.368585,2.446455 1.335375,2.419635 1.88622,1.523295 z M 17.239178,78.703404 c 1.79866,-1.136435 3.314225,-2.106085 3.367925,-2.15477 0.249236,-0.22597 -2.22336,-3.66491 -2.80135,-3.896176 -1.302685,-0.52123 -2.964085,0.402511 -3.144605,1.748411 -0.06201,0.462295 -0.09417,0.49398 -0.44873,0.44194 -1.60139,-0.235035 -2.866515,1.290585 -2.241645,2.70321 0.240895,0.544585 1.8686,3.2191 1.96111,3.22234 0.02035,5e-4 1.50863,-0.92852 3.307295,-2.064955 z m -3.466515,-0.9187 c -0.667755,-1.14151 -0.38482,-1.826 0.670755,-1.622715 0.228005,0.0439 1.2153,1.353665 1.23025,1.632065 0.007,0.12895 -1.092525,0.85893 -1.293665,0.85893 -0.05468,0 -0.32798,-0.390725 -0.60734,-0.86828 z m 2.78627,-1.42727 c -0.926255,-1.44797 -0.399575,-2.918345 0.770675,-2.15157 0.28913,0.189445 1.3474,1.76967 1.24285,1.85584 -0.02605,0.02145 -0.388705,0.254745 -0.805905,0.518395 l -0.758535,0.479365 z M 96.55131,72.381113 c 1.15445,-2.61168 1.11695,-3.120835 -0.229835,-3.120835 -0.01945,0 -0.19979,0.38695 -0.400795,0.859895 -0.201,0.47294 -0.3875,0.859895 -0.41444,0.859895 -0.02695,0 -1.32327,-0.565545 -2.880736,-1.25677 -1.55746,-0.691225 -2.900055,-1.25677 -2.98354,-1.25677 -0.182485,0 -0.73431,1.231925 -0.58063,1.296225 1.65721,0.6934 5.789566,2.66224 5.772231,2.75015 -0.0131,0.06645 -0.175685,0.462271 -0.3613,0.879611 l -0.337485,0.7588 0.493595,0.260615 c 0.836415,0.44162 0.82445,0.45426 1.922935,-2.030816 z m -83.086372,-0.29595 c 2.599245,-0.228445 4.06692,-0.4089 4.06506,-0.499805 -0.0015,-0.07824 -0.12158,-0.403835 -0.266625,-0.723525 l -0.263725,-0.581255 -0.928885,0.07787 -0.92889,0.07788 -0.31152,-0.704405 c -0.748535,-1.692565 -0.74943,-1.59902 0.02205,-2.298075 l 0.685305,-0.620965 -0.292245,-0.694395 c -0.16074,-0.381915 -0.33286,-0.679575 -0.382495,-0.66146 -0.23397,0.08539 -6.1739101,5.475995 -6.1831101,5.61129 -0.0156,0.2297 0.49289,1.366375 0.613185,1.37067 0.057155,0.002 1.9345051,-0.157185 4.1718901,-0.353825 z m -2.27731,-1.421815 c 0.106545,-0.101435 0.54877,-0.49144 0.98272,-0.866675 l 0.78901,-0.682245 0.303955,0.68873 c 0.365495,0.828175 0.4285,0.75373 -0.769495,0.909225 -1.4137,0.183495 -1.545235,0.178555 -1.30619,-0.04905 z m 87.223677,-3.023645 c 0.91919,-3.20394 1.160885,-4.09213 1.121635,-4.1218 -0.08111,-0.0613 -7.315926,-2.10104 -7.502556,-2.11522 -0.134835,-0.01025 -1.49546,4.16215 -1.600825,4.90898 -0.008,0.05688 1.36572,0.432425 1.41211,0.38603 0.0265,-0.0265 0.264485,-0.815065 0.528895,-1.752415 0.264415,-0.93735 0.489535,-1.718095 0.500265,-1.734985 0.0229,-0.036 1.804696,0.46621 1.863821,0.52534 0.02205,0.02205 -0.15731,0.723455 -0.398585,1.55867 -0.50604,1.751745 -0.523045,1.63098 0.26057,1.85038 0.750945,0.21025 0.72773,0.238815 1.183555,-1.45628 0.205435,-0.763985 0.393955,-1.42732 0.41892,-1.47408 0.03885,-0.07276 1.352695,0.243285 1.481745,0.356435 0.02495,0.02185 -0.171355,0.7954 -0.436205,1.71897 -0.26485,0.92357 -0.46385,1.696525 -0.44222,1.71768 0.06861,0.0671 0.95623,0.302475 1.187495,0.314895 0.158105,0.0085 0.279555,-0.18824 0.42138,-0.6826 z m -87.252882,-1.54452 c 4.16792,-1.04849 3.78206,-0.87125 3.58661,-1.64746 -0.184925,-0.73441 0.0606,-0.72696 -2.52617,-0.07661 -1.169925,0.294135 -2.15054,0.511385 -2.179145,0.482785 -0.0286,-0.0286 0.84128,-0.842165 1.93307,-1.80791 2.14871,-1.900645 2.02016,-1.693075 1.7226,-2.781545 -0.115105,-0.421045 0.116715,-0.45509 -4.183905,0.61444 l -3.6467302,0.906915 0.08066,0.589965 c 0.115565,0.84531 0.057465,0.840715 2.5882651,0.204695 1.2714401,-0.31953 2.3260551,-0.56662 2.3435851,-0.54909 0.01755,0.01755 -0.887175,0.83265 -2.0104551,1.81138 -2.1256701,1.85213 -2.1346251,1.864655 -1.9102801,2.672475 0.175475,0.631865 -0.081825,0.657585 4.2018952,-0.42004 z m 88.859497,-5.04546 c 0.0507,-0.36846 0.0691,-0.69299 0.0409,-0.721175 -0.122975,-0.12298 -7.712521,-1.375815 -7.797356,-1.28714 -0.100835,0.1054 -0.31095,1.349635 -0.23029,1.36373 0.02645,0.0045 1.655436,0.296345 3.619966,0.64828 4.60316,0.82462 4.25283,0.824915 4.36679,-0.0035 z m -88.732237,-2.03471 c 2.268195,-1.03086 2.72633,-4.0767 0.868675,-5.775215 -0.35224,-0.32206 -2.54944,-0.36345 -3.4220701,-0.06446 -0.08795,0.03015 -0.10325,0.43494 -0.0436,1.153445 0.050555,0.60886 0.096655,1.273835 0.10244,1.47773 0.0103,0.362975 0.025,0.36988 0.7050501,0.33073 l 0.69453,-0.04 0.0393,-0.7479 c 0.06461,-1.229645 0.838155,-1.22922 1.38345,0.001 0.647205,1.45985 -0.535695,2.574895 -2.7456601,2.58815 -2.1053701,0.01265 -3.2372601,-2.08257 -1.5987851,-2.959455 0.3844001,-0.205725 0.4087051,-0.34806 0.1862501,-1.09055 -0.4274301,-1.42664 -2.3577752,0.41046 -2.3577752,2.24389 0,2.794335 3.1520202,4.262745 6.1881953,2.882855 z M 98.99575,58.339198 c 2.52861,-1.056265 2.2398,-4.454085 -0.46598,-5.4822 -3.53169,-1.341941 -7.269931,1.16255 -5.823766,3.901715 0.388425,0.73572 1.890161,1.789825 2.240981,1.573005 0.08472,-0.05236 0.638005,-1.19273 0.638005,-1.31498 0,-0.0215 -0.20641,-0.10719 -0.45869,-0.19045 -1.360675,-0.449065 -1.488835,-2.0511 -0.205175,-2.56472 1.087825,-0.43526 3.1503,-0.19659 3.83594,0.44389 0.74596,0.696835 0.37463,2.251695 -0.53775,2.251695 -0.357335,0 -0.40145,0.174725 -0.23078,0.9141 0.17089,0.740345 0.25811,0.780865 1.007215,0.467945 z M 13.039933,51.632412 c 0.0084,-0.50415 0.39325,-4.898911 0.47353,-5.407096 0.07389,-0.467715 0.05791,-0.48941 -0.664405,-0.90268 -0.82833,-0.47392 -0.8217,-0.451665 -0.526185,-1.766975 0.27711,-1.233405 0.325435,-1.282885 1.252825,-1.282885 0.868475,0 0.95218,-0.07738 1.1092,-1.02526 0.08843,-0.53384 0.07676,-0.56224 -0.23104,-0.56224 -0.74765,0 -7.9587602,0.799045 -8.0443852,0.89138 -0.086725,0.09352 -0.396455,1.393685 -0.343525,1.44204 0.01305,0.01195 1.5268901,0.923985 3.3640952,2.026805 3.46796,2.08172 3.589115,2.1652 2.95953,2.039285 -0.503225,-0.100645 -0.51259,-0.07583 -0.62163,1.64738 -0.11541,1.823951 0.237925,1.677446 -3.3814451,1.402031 -3.42429,-0.260571 -3.2834002,-0.290771 -3.2869852,0.704465 -0.0015,0.44476 0.04635,0.56406 0.2294851,0.57096 0.12733,0.005 1.5412,0.11661 3.1419301,0.248485 4.2102251,0.346845 4.5628501,0.34486 4.5690051,-0.0257 z M 9.396968,43.350406 8.3386329,42.735796 9.638153,42.624201 c 1.53067,-0.13144 1.441855,-0.177235 1.23428,0.636445 -0.20989,0.82278 -0.21292,0.822965 -1.475465,0.08976 z m 88.066667,8.034196 c 2.50974,-0.53196 3.802485,-2.718816 2.778575,-4.700336 -1.617515,-3.130275 -7.964511,-1.899815 -7.964511,1.54404 0,2.427301 2.227916,3.783266 5.185936,3.156296 z m -2.73854,-1.649606 c -1.452606,-0.79109 -1.04741,-2.6525 0.671635,-3.08536 2.503875,-0.63048 4.30347,0.54747 3.42668,2.242995 -0.45437,0.878655 -3.05149,1.412471 -4.098315,0.842365 z m 0.03835,-5.597265 c 1.05075,-0.538855 1.324045,-1.08639 1.442525,-2.890065 0.08413,-1.280735 0.22906,-1.620725 0.69089,-1.620725 0.77247,0 1.072735,1.44804 0.414255,1.997765 l -0.43204,0.36068 0.22133,0.666365 c 0.452515,1.36239 2.056465,0.0211 2.056465,-1.7197 0,-1.97558 -1.47175,-3.194125 -3.104655,-2.570515 -1.15473,0.440995 -1.441205,0.9907 -1.584895,3.041205 -0.104825,1.4959 -0.638325,1.942825 -1.467651,1.22947 -0.752285,-0.64709 -0.59271,-1.56309 0.393895,-2.261085 0.248806,-0.17602 0.249421,-0.19821 0.02215,-0.793365 -0.278905,-0.7303 -0.48586,-0.76843 -1.23305,-0.227165 -2.698045,1.95445 -0.358325,6.294405 2.580801,4.787135 z m -79.167757,-5.2974 c 1.23456,-3.176055 -0.34134,-5.398365 -4.01591,-5.663175 -1.8816,-0.135595 -3.9687501,2.032 -3.9687501,4.121725 0,0.12064 6.9399651,3.086175 7.2901301,3.115165 0.04415,0.0035 0.35667,-0.704515 0.69453,-1.573715 z m -3.883615,-1.33464 c -2.4189851,-1.005885 -2.330085,-0.90597 -1.777055,-1.997325 0.51756,-1.021355 1.37404,-1.112975 3.127965,-0.3346 1.555165,0.69016 1.8465,1.18681 1.41432,2.411015 -0.36046,1.021035 -0.10184,1.028435 -2.76523,-0.07909 z m 79.981941,-3.57331 2.822756,-1.46123 0.4175,0.832845 c 0.22962,0.45806 0.43301,0.850445 0.451965,0.871965 0.06482,0.07357 1.25709,-0.554625 1.25709,-0.662355 0,-0.147335 -2.05029,-4.213416 -2.27428,-4.510286 -0.17157,-0.227395 -0.20989,-0.22209 -0.807196,0.111755 l -0.627075,0.350475 0.45291,0.85294 0.452916,0.85294 -2.898121,1.450206 c -1.59396,0.797615 -2.898115,1.47812 -2.898115,1.512235 0,1.452405 0.50899,1.424305 3.64965,-0.20149 z M 18.771633,32.340276 c 1.484475,-2.477156 1.42525,-2.254921 0.712995,-2.675551 -0.693285,-0.40943 -0.55442,-0.51924 -1.63075,1.28955 l -0.90421,1.519536 -0.667495,-0.39482 c -0.367125,-0.21715 -0.750635,-0.44553 -0.85225,-0.507515 -0.146415,-0.0893 -0.016,-0.392046 0.628385,-1.458726 0.96717,-1.60101 0.952405,-1.4892 0.25132,-1.903235 -0.68861,-0.406665 -0.57068,-0.490715 -1.4901,1.06201 -0.421235,0.71139 -0.786365,1.317885 -0.8114,1.347765 -0.0489,0.05838 -0.777985,-0.312055 -1.150945,-0.58477 -0.207525,-0.151745 -0.15225,-0.291015 0.63653,-1.603805 0.475085,-0.790695 0.86388,-1.498405 0.86399,-1.572685 2.2e-4,-0.146825 -1.1478,-0.818075 -1.229955,-0.71916 -0.26295,0.316605 -2.47547,4.15713 -2.445945,4.245705 0.0388,0.116375 6.57928,4.081696 6.73384,4.082546 0.04465,2.45e-4 0.65484,-0.956835 1.35599,-2.126845 z m 71.257106,-2.634381 c 3.669101,-2.60999 3.429665,-2.371585 2.9774,-2.964535 -0.47631,-0.62448 -0.34801,-0.668755 -2.454685,0.84704 -1.01124,0.7276 -1.87163,1.322915 -1.91198,1.322915 -0.04035,0 0.464085,-1.065025 1.12097,-2.366725 1.35262,-2.680375 1.326645,-2.578145 0.811645,-3.194525 l -0.382695,-0.45802 -0.84963,0.59531 c -5.94739,4.16716 -5.77121,4.00594 -5.16137,4.723145 l 0.36024,0.423665 1.91823,-1.368295 c 2.3033,-1.642965 2.196835,-1.79352 0.75602,1.06911 l -1.207485,2.399055 0.36833,0.556581 c 0.477665,0.721805 0.31083,0.794145 3.65501,-1.584721 z m -68.806945,-1.18366 c 1.46866,-0.749255 2.14251,-2.521905 1.434115,-3.772605 -0.847685,-1.49663 -2.396556,-1.761325 -4.063991,-0.694515 -1.45354,0.929965 -1.985055,0.95446 -1.985055,0.09149 0,-0.78757 0.95102,-1.39676 1.62087,-1.038265 0.24159,0.129295 0.32398,0.09714 0.593155,-0.23151 0.600495,-0.733165 0.6127,-0.819015 0.15592,-1.0968 -2.127075,-1.29355 -4.87612,1.495255 -3.50954,3.560295 0.915155,1.38289 2.28076,1.38504 4.314595,0.0068 0.92285,-0.625375 1.587501,-0.385205 1.587501,0.573645 0,1.02521 -0.882351,1.460705 -2.182811,1.07735 -0.27292,-0.08045 -0.859895,0.62577 -0.859895,1.034585 0,0.580155 2.04103,0.92527 2.895136,0.489535 z m 62.549865,-2.01812 c 0.59011,-0.571955 0.603245,-0.540575 -0.819565,-1.95747 l -1.25581,-1.25059 0.622455,-0.631955 c 0.79207,-0.80416 0.694875,-0.82791 2.02329,0.49435 l 1.13154,1.1263 0.520215,-0.532745 0.52021,-0.53275 -1.15271,-1.158075 -1.15271,-1.15807 0.55975,-0.55975 0.55975,-0.55975 1.26325,1.25851 1.26325,1.25851 0.520785,-0.53334 0.52079,-0.533335 -1.77107,-1.774725 -1.771075,-1.774725 -2.822005,2.723125 c -3.34106,3.22399 -3.20639,2.62486 -1.070985,4.76467 2.01421,2.018365 1.75591,1.869485 2.310645,1.331815 z M 25.255779,24.11748 c 0.102755,-0.162905 -0.10018,-0.46415 -0.951865,-1.41297 -1.28551,-1.432125 -1.26767,-1.22393 -0.1851,-2.16049 l 0.879085,-0.760525 0.7419,0.82667 c 0.408045,0.45467 0.92809,1.03503 1.15566,1.28969 l 0.41376,0.46302 0.534395,-0.5297 0.53439,-0.529705 -2.596675,-2.90988 c -3.015245,-3.378935 -2.637285,-3.080625 -3.2565,-2.570215 -0.63226,0.521165 -0.65816,0.429875 0.48948,1.72525 l 0.98349,1.110085 -0.818125,0.754435 c -1.030385,0.95018 -0.900675,0.97 -2.100155,-0.3209 l -1.017446,-1.094995 -0.52604,0.52917 -0.52604,0.529165 2.648251,2.950145 2.648245,2.950145 0.409345,-0.315675 c 0.22514,-0.17362 0.468115,-0.408845 0.539945,-0.52272 z m 54.32192,-2.660045 c 0.25466,-0.12373 0.605475,-0.334485 0.779585,-0.468345 l 0.31656,-0.243375 -0.423045,-0.614875 -0.423045,-0.614875 -0.5666,0.33205 c -1.377455,0.807245 -2.51201,-0.107465 -2.009125,-1.619815 0.906215,-2.72532 4.256375,-3.729275 4.01361,-1.202775 -0.06896,0.717695 -0.0204,0.76883 1.03555,1.090345 0.50498,0.153755 0.778335,-1.44737 0.4012,-2.349975 -1.155335,-2.765105 -5.01009,-2.01827 -6.625575,1.283665 -1.378865,2.818295 0.890855,5.676105 3.500885,4.407975 z m -47.130185,-2.79894 c 0.0175,-0.0106 -0.323245,-0.66848 -0.757185,-1.461955 -0.787785,-1.44048 -0.788535,-1.44292 -0.494815,-1.606135 0.515135,-0.286255 0.811785,-0.192915 2.35078,0.73967 l 1.50587,0.91251 0.664965,-0.379775 c 0.88824,-0.507295 0.897655,-0.47872 -0.441955,-1.341635 -1.103905,-0.711085 -1.45891,-0.899605 -2.042515,-1.084675 -0.229525,-0.07279 -0.22807,-0.09349 0.0296,-0.42106 1.06134,-1.34928 -0.33225,-3.784436 -2.054655,-3.590295 -0.44088,0.0497 -3.426265,1.512175 -3.86771,1.89472 -0.0268,0.02325 0.825425,1.622905 1.893855,3.554825 l 1.942605,3.51258 0.619685,-0.35475 c 0.340825,-0.195115 0.63399,-0.363425 0.65148,-0.374025 z m -2.70324,-4.95571 -0.422485,-0.784335 0.840855,-0.470235 c 0.991015,-0.554205 1.24576,-0.578065 1.644165,-0.15398 0.557485,0.593415 0.35882,1.114765 -0.64727,1.698615 -1.055715,0.61265 -0.913285,0.641845 -1.415265,-0.290065 z m 44.435225,4.15624 c 1.64617,-1.07393 1.607535,-2.74866 -0.10549,-4.57259 -0.88843,-0.94595 -0.978545,-1.15732 -0.638425,-1.49744 0.61432,-0.61432 1.90682,0.23187 1.727055,1.13069 -0.100885,0.50443 1.12695,1.23662 1.35601,0.808625 1.31628,-2.459495 -2.60845,-4.9499056 -4.301866,-2.72972 -0.826605,1.083735 -0.594785,2.236655 0.735711,3.65896 1.01324,1.08316 1.093545,1.61167 0.29513,1.942385 -0.871096,0.36082 -1.779706,-0.39413 -1.716756,-1.426425 l 0.0432,-0.708105 -0.635495,-0.241435 c -0.732305,-0.27822 -0.853555,-0.14571 -0.983305,1.074615 -0.219255,2.0621 2.48012,3.698275 4.224246,2.56044 z M 40.650874,14.95185 c 1.039311,-0.38868 1.070426,-0.441375 0.743315,-1.25889 -0.16227,-0.40556 -0.268915,-0.51805 -0.429945,-0.453505 -0.65423,0.26221 -3.096905,1.119775 -3.18956,1.119775 -0.09511,0 -0.66261,-1.48263 -0.66261,-1.731085 0,-0.05072 0.6117,-0.310155 1.359335,-0.57652 0.74764,-0.26637 1.429555,-0.527705 1.515375,-0.580745 0.193765,-0.11975 -0.210305,-1.344981 -0.443565,-1.344981 -0.122385,0 -1.995385,0.650611 -2.832605,0.983941 -0.18879,0.07517 -0.8081,-1.2934505 -0.64543,-1.4263455 0.0301,-0.0246 0.754195,-0.301345 1.60913,-0.6150351 0.854935,-0.313685 1.554425,-0.64169 1.554425,-0.7289 0,-0.20842 -0.276205,-1.0302795 -0.389105,-1.1577896 -0.13933,-0.157355 -4.70686,1.5749246 -4.68749,1.7777746 0.0171,0.179185 2.522985,7.0799156 2.639265,7.2680556 0.05888,0.09527 1.217555,-0.28773 3.859465,-1.27575 z m 28.224099,0.89566 c 0.381875,-1.002045 0.395445,-0.98252 -1.02819,-1.479405 -0.7149,-0.249515 -1.485885,-0.529885 -1.71331,-0.623045 l -0.41349,-0.16938 0.32865,-0.92205 0.32865,-0.922055 1.465215,0.524875 c 1.677655,0.600975 1.706745,0.598935 1.926675,-0.13513 0.214935,-0.717395 0.246215,-0.689105 -1.398925,-1.26533 -0.784525,-0.27479 -1.44257,-0.513066 -1.462325,-0.529506 -0.01975,-0.01645 0.08922,-0.3568945 0.242175,-0.7565745 l 0.278085,-0.7266901 1.59256,0.5751951 c 0.87591,0.316355 1.63218,0.57519 1.6806,0.57519 0.145935,0 0.55493,-1.2306201 0.445295,-1.3398401 -0.191845,-0.19111 -4.590695,-1.6986296 -4.67305,-1.6014846 -0.200975,0.2370501 -2.63252,7.3653602 -2.54169,7.4512102 0.0996,0.09414 4.50085,1.68578 4.70194,1.70038 0.05637,0.004 0.16488,-0.156265 0.241135,-0.35636 z M 44.04053,14.040365 c 2.650573,-0.561405 3.258003,-1.186145 3.258003,-3.35084 0,-2.5801056 -1.179948,-4.5766752 -2.813583,-4.7608102 -0.55339,-0.062375 -3.366191,0.418975 -3.569331,0.61081 -0.07906,0.074665 1.214746,7.0264452 1.424561,7.6543402 0.06958,0.208225 -0.06471,0.22035 1.70035,-0.1535 z m -0.513375,-1.57617 C 43.41579,12.1268 42.56201,7.6758599 42.601055,7.6361949 c 0.316065,-0.32112 2.03177,-0.151795 2.355075,0.232425 0.757535,0.9002845 1.11611,3.5419901 0.556465,4.0996651 -0.33271,0.33154 -1.90968,0.725425 -1.98544,0.49591 z m 19.990958,1.663525 c -0.55517,-1.83289 -0.8158,-2.571675 -1.070745,-3.03517 l -0.305115,-0.554695 0.377135,-0.08284 c 1.712145,-0.376051 2.186865,-3.3836452 0.65724,-4.1640002 -0.44379,-0.226405 -4.069165,-1.01717 -4.160735,-0.907535 -0.12285,0.147085 -1.466455,7.8093402 -1.37889,7.8634552 0.05844,0.0361 0.393355,0.09968 0.74424,0.141235 l 0.63797,0.07556 0.28429,-1.55174 c 0.332735,-1.816211 0.27719,-1.721391 0.8646,-1.475955 0.47734,0.199445 0.772855,0.790795 1.472335,2.946255 0.216735,0.667885 0.228595,0.67844 0.90942,0.809445 1.017245,0.195735 1.04635,0.19381 0.968255,-0.06402 z M 60.551488,9.0300344 c -0.648195,-0.12439 -0.697655,-0.15962 -0.625845,-0.445735 0.0429,-0.170865 0.114685,-0.578515 0.15956,-0.9058895 0.04485,-0.32737 0.09936,-0.5952201 0.121095,-0.5952201 1.20711,0 2.305775,0.5652601 2.305775,1.1863196 0,0.883885 -0.436145,1.053065 -1.960585,0.760525 z M 55.340518,12.9181 c 0.696805,-0.355635 1.06746,-0.83933 1.48525,-1.93819 0.11929,-0.31376 0.08776,-0.35697 -0.432885,-0.593306 -0.77857,-0.35341 -0.846875,-0.33517 -1.129165,0.301531 -0.91367,2.060795 -2.677115,1.015355 -2.670615,-1.5832506 0.0068,-2.7012596 2.167185,-3.7796546 2.938195,-1.4666245 0.137395,0.4121945 1.455295,-0.16915 1.370435,-0.6045201 C 56.326463,4.0823145 52.177438,4.3431096 51.247132,7.3891749 50.146347,10.99345 52.604948,14.31428 55.340518,12.9181 Z"
     id="path3" /></svg>
